<?xml version="1.0" encoding="UTF-8" standalone="no"?>
<!DOCTYPE svg PUBLIC "-//W3C//DTD SVG 1.1//EN" "http://www.w3.org/Graphics/SVG/1.1/DTD/svg11.dtd">
<svg width="100%" height="100%" viewBox="0 0 2390 501" version="1.1" xmlns="http://www.w3.org/2000/svg" xmlns:xlink="http://www.w3.org/1999/xlink" xml:space="preserve" xmlns:serif="http://www.serif.com/" style="fill-rule:evenodd;clip-rule:evenodd;stroke-linejoin:round;stroke-miterlimit:2;">
    <g transform="matrix(1,0,0,1,-55.1474,-999.748)">
        <rect x="487.897" y="999.748" width="147.349" height="84.161" style="fill:rgb(255,81,81);"/>
    </g>
    <g transform="matrix(1,0,0,1,-55.1474,-999.748)">
        <path d="M1289.08,999.748L1289.08,1305.69C1289.08,1342.83 1299.57,1376.13 1320.67,1405.57C1341.77,1435.16 1371.86,1458.29 1411.06,1475.01C1450.24,1491.85 1495.36,1500.27 1546.68,1500.27C1607.38,1500.27 1657.73,1491.85 1697.76,1475.13C1737.91,1458.42 1767.01,1435.03 1785.51,1405.08C1804,1375.13 1813.25,1339.97 1813.25,1299.75L1813.25,999.748L1659.97,999.748L1659.97,1279.58C1659.97,1305.81 1656.65,1327.86 1649.77,1345.68C1643.01,1363.5 1631.27,1377.23 1614.71,1387.03C1598.02,1396.67 1575.4,1401.5 1546.7,1401.5C1477.57,1401.5 1443.07,1362.38 1443.07,1284.16L1443.07,999.748L1289.08,999.748ZM487.897,1141.7L487.897,1485.4L635.246,1485.4L635.246,1141.7L487.897,1141.7ZM2039.22,1231.44L1833.07,1485.4L2014.36,1485.4L2132.76,1310.04L2244.51,1485.4L2444.85,1485.4L2239.54,1227.11L2438.24,999.748L2255.27,999.748L2150.14,1141.7L2045.15,999.748L1851.28,999.748L2039.22,1231.44ZM701.444,999.748L701.444,1485.4L835.421,1485.4L835.421,1120.04L1016.71,1485.4L1230.44,1485.4L1230.44,999.748L1093.84,999.748L1093.84,1359.17L913.24,999.748L701.444,999.748ZM55.147,999.748L55.147,1485.4L450.155,1485.4L450.155,1385.16L209.124,1385.16L209.124,999.748L55.147,999.748Z" style="fill:white;"/>
    </g>
</svg>
