<?xml version="1.0" encoding="UTF-8" standalone="no"?>
<!DOCTYPE svg PUBLIC "-//W3C//DTD SVG 1.1//EN" "http://www.w3.org/Graphics/SVG/1.1/DTD/svg11.dtd">
<svg width="100%" height="100%" viewBox="0 0 1226 366" version="1.1" xmlns="http://www.w3.org/2000/svg" xmlns:xlink="http://www.w3.org/1999/xlink" xml:space="preserve" xmlns:serif="http://www.serif.com/" style="fill-rule:evenodd;clip-rule:evenodd;stroke-linejoin:round;stroke-miterlimit:2;">
    <g transform="matrix(1,0,0,1,-36.7561,-1051.83)">
        <path d="M1197.84,1059.06L1197.88,1059.06L1197.88,1059.02L1197.84,1059.06L1053.53,1059.06L980.825,1120.39L902.423,1059.06L782.336,1059.14L769.717,1074.14L720.276,1133.01L740.081,1149.16L680.848,1219.68L591.888,1151.39L587.362,1147.91L476.483,1147.64C476.483,1147.64 475.718,1137.99 473.163,1125.63C466.289,1092.34 453.864,1073.05 412.348,1062.48C368.432,1051.3 278.578,1051.98 274.661,1051.85L274.259,1051.84L273.857,1051.84C270.121,1051.89 191.226,1053.35 148.634,1062.59C71.476,1077.23 50.05,1127.36 41.14,1184.42C31.62,1245.38 37.547,1285.04 59.479,1309.22C82.475,1334.58 97.312,1338.19 113.07,1340.1L113.602,1340.18C116.079,1340.39 175.183,1345.57 246.672,1344.61C317.396,1343.25 350.923,1340.15 352.311,1340.02L352.894,1339.94C353.802,1339.82 373.607,1337.08 396.291,1324.37L419.818,1335.08L421.193,1416.19L534.588,1416.12L571.655,1371.99L571.668,1336.46L675.297,1417.82L817.393,1417.71L854.461,1373.59L944.264,1267.15L1020.37,1331.19L1133.52,1331.19L1172.77,1286.99L1186.01,1271.23L1071.28,1173.43L1087.4,1186.99L1197.84,1059.06Z" style="fill:rgb(0,69,96);"/>
    </g>
    <g transform="matrix(1,0,0,1,-36.7561,-1051.83)">
        <path d="M408.587,1079.23C448.935,1089.33 450.012,1119.82 451.75,1127.07C462.878,1173.66 456.523,1213.05 456.523,1213.05L476.496,1220.73L476.496,1165.16L581.694,1165.1L756.98,1299.66L756.98,1165.1L839.39,1165.1L839.377,1235.98L921.32,1175.1L800.196,1076.3L896.665,1076.24L981.228,1142.4L1059.66,1076.14L1153.93,1076.14L1045.55,1173.69L1156.53,1269.81L1063.59,1269.86L981.228,1200.57L897.962,1272.64L802.984,1272.7L786.681,1293.9L839.377,1293.88L839.377,1354.87L718.214,1354.92L554.821,1227.77L554.795,1354.82L475.238,1354.87L475.264,1289.55L501.658,1260.89L500.957,1231.57L462.165,1273.92L431.037,1261.75C408.561,1276.08 387.861,1278.77 387.861,1278.77C387.861,1278.77 354.373,1281.93 283.454,1283.31C239.655,1283.83 195.854,1282.37 152.187,1278.92C141.176,1277.57 129.724,1276.24 109.024,1253.44C88.324,1230.64 87.909,1188.59 94.952,1142.95C102.007,1097.76 125.807,1085.22 152.239,1079.4C193.652,1070.42 275.387,1069.03 275.387,1069.03C275.387,1069.03 365.605,1068.46 408.587,1079.23Z" style="fill:white;"/>
    </g>
    <g transform="matrix(1,0,0,1,-36.7561,-1051.83)">
        <path d="M350.767,1225.99L270.679,1191.14L302.403,1148.62L376.396,1179.44C376.396,1179.44 375.358,1159.13 373.763,1151.26C372.167,1143.39 368.043,1129.34 346.007,1124.44C329.717,1120.42 278.616,1119.11 278.616,1119.11C278.616,1119.11 230.161,1119.59 208.139,1124.52C194.054,1127.21 181.265,1134.38 177.297,1158.54C173.328,1183.14 173.769,1205.97 184.78,1218.03C196.22,1230.1 201.369,1231.03 208.126,1231.88C208.126,1231.88 239.124,1234.1 276.036,1234.07C345.839,1234.05 350.767,1225.99 350.767,1225.99ZM1229.74,1123.77C1212.36,1123.77 1196.89,1111.74 1196.89,1091.08C1196.89,1070.41 1212.36,1058.4 1229.74,1058.4C1247.03,1058.4 1262.5,1070.41 1262.5,1091.08C1262.5,1111.74 1247.03,1123.77 1229.74,1123.77ZM1229.74,1066.54C1216.29,1066.54 1205.44,1076.35 1205.44,1091.08C1205.44,1105.82 1216.28,1115.7 1229.74,1115.62L1229.74,1115.7C1242.83,1115.7 1253.96,1105.8 1253.96,1091.08C1253.96,1076.36 1242.83,1066.54 1229.74,1066.54ZM1224.35,1107.54L1216.89,1107.54L1216.89,1074.21L1229.92,1074.21C1238.92,1074.21 1244.24,1076.67 1244.24,1084.29C1244.24,1090.43 1240.47,1092.65 1235.85,1092.96L1244.77,1107.54L1235.94,1107.54L1227.87,1093.53L1224.35,1093.53L1224.35,1107.54ZM1230.96,1087.88C1234.31,1087.88 1236.28,1087.23 1236.28,1083.53C1236.28,1080.1 1232.43,1079.85 1229.59,1079.85L1224.35,1079.85L1224.35,1087.88L1230.96,1087.88Z" style="fill:rgb(0,69,96);"/>
    </g>
</svg>
